<svg xmlns="http://www.w3.org/2000/svg" version="1.1" width="1000" height="1000">
    <style>
        #light-icon {
        display: inline;
        }
        #dark-icon {
        display: none;
        }

        @media (prefers-color-scheme: dark) {
        #light-icon {
        display: none;
        }
        #dark-icon {
        display: inline;
        }
        }
    </style>
    <g id="light-icon">
        <svg xmlns="http://www.w3.org/2000/svg" version="1.1" width="1000" height="1000">
            <g>
                <g transform="matrix(5.2631578947368425,0,0,5.2631578947368425,-5.684341886080802e-14,288.9473684210526)">
                    <svg xmlns="http://www.w3.org/2000/svg" version="1.1" width="190" height="80.2">
                        <svg id="Layer_2" data-name="Layer 2" xmlns="http://www.w3.org/2000/svg" viewBox="0 0 190 80.2">
                            <defs>
                                <style>
                                    .cls-1 {
                                    fill: #72b01d;
                                    }
                                </style>
                            </defs>
                            <g id="Layer_1-2">
                                <g>
                                    <polygon points="20 0 0 30 0 50 19.76 80 120 80 100 59.6 30 59.6 20 39.6 30 20 90 20 70 0 20 0" />
                                    <polygon class="cls-1" points="40 0 120 80.2 140 80.2 190 0 80 0 130 50 130 70.2 60 0 40 0" />
                                </g>
                            </g>
                        </svg>
                    </svg>
                </g>
            </g>
        </svg>
    </g>
    <g id="dark-icon">
        <svg xmlns="http://www.w3.org/2000/svg" version="1.1" width="1000" height="1000">
            <g>
                <g transform="matrix(5.2631578947368425,0,0,5.2631578947368425,-5.684341886080802e-14,288.9473684210526)">
                    <svg xmlns="http://www.w3.org/2000/svg" version="1.1" width="190" height="80.2">
                        <svg id="Layer_2" data-name="Layer 2" xmlns="http://www.w3.org/2000/svg" viewBox="0 0 190 80.2">
                            <defs>
                                <style>
                                    .cls-1 {
                                    fill: #fff;
                                    }

                                    .cls-2 {
                                    fill: #72b01d;
                                    }
                                </style>
                            </defs>
                            <g id="Layer_1-2">
                                <g>
                                    <polygon class="cls-1" points="20 0 0 30 0 50 19.76 80 120 80 100 59.6 30 59.6 20 39.6 30 20 90 20 70 0 20 0"/>
                                    <polygon class="cls-2" points="40 0 120 80.2 140 80.2 190 0 80 0 130 50 130 70.2 60 0 40 0" />
                                </g>
                            </g>
                        </svg>
                    </svg>
                </g>
            </g>
        </svg>
    </g>
</svg>